<svg width="19" height="14" viewBox="0 0 19 14" fill="none" xmlns="http://www.w3.org/2000/svg">
<path d="M7.62618 2.08461C8.04112 1.66968 8.04112 0.996936 7.62618 0.582009C7.21124 0.167081 6.5386 0.167081 6.12362 0.582009L0.456951 6.24872C0.24948 6.45612 0.145752 6.72812 0.145752 6.99998C0.145752 7.14405 0.174425 7.28147 0.226375 7.4067C0.278224 7.53193 0.355078 7.64938 0.456951 7.75124L6.12362 13.4179C6.5386 13.8328 7.21124 13.8328 7.62618 13.4179C8.04112 13.003 8.04112 12.3303 7.62618 11.9154L3.77335 8.06248H17.4999C18.0867 8.06248 18.5624 7.58676 18.5624 6.99998C18.5624 6.41319 18.0867 5.93748 17.4999 5.93748H3.77335L7.62618 2.08461Z" fill="#303237"/>
</svg>
