<svg width="22" height="19" viewBox="0 0 22 19" fill="none" xmlns="http://www.w3.org/2000/svg">
<path fill-rule="evenodd" clip-rule="evenodd" d="M0.0625 6.53725C0.0625 3.16163 3.02392 0.5625 6.5 0.5625C8.29184 0.5625 9.8685 1.40268 11 2.48979C12.1315 1.40268 13.7081 0.5625 15.5 0.5625C18.9761 0.5625 21.9375 3.16163 21.9375 6.53725C21.9375 8.84963 20.9514 10.883 19.5853 12.6019C18.2214 14.3179 16.4375 15.7741 14.7294 16.9575C14.0769 17.4095 13.4169 17.8264 12.8129 18.134C12.2456 18.4229 11.5934 18.6875 11 18.6875C10.4066 18.6875 9.75437 18.4229 9.18712 18.134C8.58313 17.8264 7.92308 17.4095 7.27066 16.9575C5.56256 15.7741 3.77859 14.3179 2.41478 12.6019C1.0486 10.883 0.0625 8.84963 0.0625 6.53725ZM6.5 2.4375C3.90094 2.4375 1.9375 4.34888 1.9375 6.53725C1.9375 8.29163 2.68224 9.925 3.88261 11.4353C5.08535 12.9485 6.70365 14.2836 8.33842 15.4162C8.957 15.8447 9.53963 16.2094 10.0381 16.4633C10.5732 16.7358 10.8834 16.8125 11 16.8125C11.1166 16.8125 11.4268 16.7358 11.9619 16.4633C12.4604 16.2094 13.043 15.8447 13.6616 15.4162C15.2964 14.2836 16.9146 12.9485 18.1174 11.4353C19.3177 9.925 20.0625 8.29163 20.0625 6.53725C20.0625 4.34888 18.099 2.4375 15.5 2.4375C14.0073 2.4375 12.6135 3.32928 11.7432 4.46115C11.5658 4.69195 11.2911 4.8272 11 4.8272C10.7089 4.8272 10.4342 4.69195 10.2568 4.46115C9.3865 3.32928 7.99269 2.4375 6.5 2.4375Z" fill="#303237"/>
</svg>
