<svg width="20" height="18" viewBox="0 0 20 18" fill="none" xmlns="http://www.w3.org/2000/svg">
<path d="M1.1765 17.4965C1.201 17.499 1.226 17.5 1.2505 17.5C1.6045 17.5 1.9145 17.2505 1.9855 16.897C3.0345 11.649 8.504 11.2755 11 11.3915V15.25C11 15.553 11.1825 15.8265 11.463 15.943C11.743 16.0585 12.0655 15.995 12.2805 15.7805L19.2805 8.7805C19.5735 8.488 19.5735 8.0125 19.2805 7.72L12.2805 0.72C12.066 0.5055 11.7435 0.441 11.463 0.5575C11.1825 0.673 11 0.9465 11 1.25V5.0975C8.1835 5.4655 0.5 7.3335 0.5 16.75C0.5 17.1355 0.7925 17.4585 1.1765 17.4965Z" fill="white"/>
</svg>
