<svg width="17" height="13" viewBox="0 0 17 13" fill="none" xmlns="http://www.w3.org/2000/svg">
<path d="M2.30307 0.984001C1.22574 0.984001 0.659912 1.64143 0.659912 2.62716V11.3548C0.659912 12.3405 1.22574 12.9979 2.30307 12.9979H15.0168C16.0941 12.9979 16.6599 12.3405 16.6599 11.3548V2.62716C16.6599 1.64143 16.0941 0.984001 15.0168 0.984001H2.30307Z" fill="#D9D6CC"/>
<path d="M2.43288 1.65762C1.58012 1.65762 1.32617 2.16868 1.32617 2.8035V6.98116L5.08954 6.98812C6.09498 6.99 6.50665 7.39448 6.92562 7.96047C7.03233 8.1046 7.16212 8.29997 7.28888 8.42682C7.66733 8.80568 8.16365 8.99492 8.66 8.99492C9.15634 8.99492 9.65264 8.80568 10.0311 8.42682C10.1579 8.29997 10.2877 8.1046 10.3944 7.96047C10.8133 7.3945 11.225 6.99 12.2304 6.98812L15.9938 6.98116V2.80352C15.9938 2.16871 15.7399 1.65764 14.8871 1.65764L2.43288 1.65762Z" fill="#F16D5E"/>
<path d="M2.43288 1.65762C1.58012 1.65762 1.32617 2.16868 1.32617 2.8035V4.14195C1.32617 3.50714 1.58012 2.9961 2.43288 2.9961H14.8871C15.7399 2.9961 15.9938 3.50714 15.9938 4.14198V2.80352C15.9938 2.16868 15.7399 1.65762 14.8871 1.65762H2.43288Z" fill="#3295C9"/>
<mask id="mask0_104_2000" style="mask-type:luminance" maskUnits="userSpaceOnUse" x="1" y="1" width="15" height="4">
<path d="M2.43288 1.65762C1.58015 1.65762 1.32617 2.16866 1.32617 2.8035V4.14195C1.32617 3.50714 1.58015 2.9961 2.43288 2.9961H14.8871C15.7399 2.9961 15.9938 3.50714 15.9938 4.14195V2.8035C15.9938 2.16866 15.7399 1.65762 14.8871 1.65762H2.43288Z" fill="white"/>
</mask>
<g mask="url(#mask0_104_2000)">
<path d="M2.43288 2.99608C1.58015 2.99608 1.32617 3.50716 1.32617 4.14198V5.48045C1.32617 4.84564 1.58015 4.33457 2.43288 4.33457H14.8871C15.7399 4.33457 15.9938 4.84564 15.9938 5.48045V4.142C15.9938 3.50716 15.7399 2.99612 14.8871 2.99612L2.43288 2.99608Z" fill="black" fill-opacity="0.318"/>
</g>
<path d="M2.43288 2.99609C1.58012 2.99609 1.32617 3.50713 1.32617 4.14197V5.48042C1.32617 4.84561 1.58012 4.33455 2.43288 4.33455H14.8871C15.7399 4.33455 15.9938 4.84561 15.9938 5.48042V4.14197C15.9938 3.50713 15.7399 2.99609 14.8871 2.99609H2.43288Z" fill="#FCAD00"/>
<path d="M2.43288 4.33455C1.58012 4.33455 1.32617 4.84561 1.32617 5.48043V6.81888C1.32617 6.18406 1.58012 5.67302 2.43288 5.67302H14.8871C15.7399 5.67302 15.9938 6.18406 15.9938 6.8189V5.48045C15.9938 4.84561 15.7399 4.33455 14.8871 4.33455H2.43288Z" fill="#50BE3D"/>
<path d="M0.659912 6.00049H1.32609V6.98116H0.659912V6.00049Z" fill="url(#paint0_linear_104_2000)"/>
<path d="M15.9937 6.00049H16.6598V6.98116H15.9937V6.00049Z" fill="url(#paint1_linear_104_2000)"/>
<defs>
<linearGradient id="paint0_linear_104_2000" x1="0.659912" y1="104.068" x2="0.659912" y2="53.2375" gradientUnits="userSpaceOnUse">
<stop stop-color="#CBC9BE"/>
<stop offset="1" stop-color="#C8C5BB" stop-opacity="0"/>
</linearGradient>
<linearGradient id="paint1_linear_104_2000" x1="15.9937" y1="104.068" x2="15.9937" y2="53.2375" gradientUnits="userSpaceOnUse">
<stop stop-color="#CBC9BE"/>
<stop offset="1" stop-color="#C8C5BB" stop-opacity="0"/>
</linearGradient>
</defs>
</svg>
